<svg width="30" height="30" viewBox="0 0 30 30" fill="none" xmlns="http://www.w3.org/2000/svg">
<path d="M17.7539 18.6914C17.514 18.6914 17.2741 18.5999 17.0911 18.4168L11.5832 12.909C11.2171 12.5429 11.2171 11.9493 11.5832 11.5832C11.9493 11.217 12.5429 11.217 12.909 11.5832L18.4169 17.091C18.783 17.4571 18.783 18.0507 18.4169 18.4168C18.2337 18.5999 17.9939 18.6914 17.7539 18.6914Z" fill="#FAFAFA"/>
<path d="M8.43768 22.5C8.19352 22.5 7.95381 22.4046 7.77458 22.2254C7.50944 21.9602 7.42776 21.5625 7.56704 21.2143L11.317 11.8393C11.4123 11.6011 11.6011 11.4123 11.8393 11.317L21.2143 7.56702C21.5626 7.42774 21.9602 7.50942 22.2254 7.77456C22.4905 8.03976 22.5722 8.43743 22.4329 8.78565L18.6829 18.1607C18.5876 18.3988 18.3989 18.5876 18.1607 18.6829L8.78567 22.4329C8.67282 22.4781 8.55475 22.5 8.43768 22.5ZM12.9087 12.9087L10.1204 19.8796L17.0913 17.0913L19.8796 10.1204L12.9087 12.9087Z" fill="#FAFAFA"/>
<path d="M15 30C10.9934 30 7.22654 28.4398 4.39336 25.6066C1.56018 22.7735 0 19.0066 0 15C0 10.9934 1.56023 7.22654 4.39336 4.39336C7.22648 1.56018 10.9934 0 15 0C19.0066 0 22.7735 1.56023 25.6066 4.39336C28.4398 7.22648 30 10.9934 30 15C30 19.0066 28.4398 22.7735 25.6066 25.6066C22.7735 28.4398 19.0066 30 15 30ZM15 1.875C7.76285 1.875 1.875 7.76285 1.875 15C1.875 22.2371 7.76285 28.125 15 28.125C22.2371 28.125 28.125 22.2371 28.125 15C28.125 7.76285 22.2371 1.875 15 1.875Z" fill="#FAFAFA"/>
</svg>
