<svg width="30" height="30" viewBox="0 0 30 30" fill="none" xmlns="http://www.w3.org/2000/svg">
<path d="M27.5 18C26.1192 18 24.9999 16.8807 24.9999 15.5C24.9999 14.1193 26.1192 13 27.5 13C28.8807 13 30 14.1193 30 15.5C30 16.8807 28.8807 18 27.5 18Z" fill="#FAFAFA"/>
<path d="M16.5 18C15.1193 18 14 16.8807 14 15.5C14 14.1193 15.1193 13 16.5 13C17.8807 13 19 14.1193 19 15.5C19 16.8807 17.8807 18 16.5 18Z" fill="#FAFAFA"/>
<path d="M4.49998 18C3.11926 18 1.99997 16.8807 1.99997 15.5C1.99997 14.1193 3.11926 13 4.49998 13C5.8807 13 7 14.1193 7 15.5C7 16.8807 5.8807 18 4.49998 18Z" fill="#FAFAFA"/>
</svg>
