<svg width="30" height="30" viewBox="0 0 30 30" fill="none" xmlns="http://www.w3.org/2000/svg">
<path d="M29.7571 26.6699L26.4004 19.9566C28.4474 18.285 29.6814 16.8027 29.74 16.7319C30.0086 16.4068 30.0086 15.937 29.74 15.612C29.6729 15.5309 28.0692 13.6044 25.4702 11.6596C23.9668 10.5346 22.4331 9.63264 20.9102 8.97633L17.0581 1.27195C16.6683 0.492422 15.8716 0 15 0C14.1284 0 13.3317 0.492422 12.9419 1.27195L9.08971 8.97627C7.5668 9.63258 6.03311 10.5345 4.52971 11.6596C1.93078 13.6044 0.327012 15.5309 0.25998 15.6119C-0.0086133 15.9369 -0.0086133 16.4068 0.25998 16.7318C0.318574 16.8026 1.55256 18.2849 3.59953 19.9566L0.24293 26.6699C0.0831445 26.9895 0 27.3418 0 27.699C0 28.9698 1.0302 30 2.30098 30H27.699C28.9698 30 30 28.9698 30 27.699C30 27.3418 29.9169 26.9895 29.7571 26.6699ZM22.132 20.7844C22.9946 19.4552 23.4961 17.871 23.4961 16.1719C23.4961 15.8538 23.4767 15.535 23.44 15.2169C25.2189 15.6646 26.6476 16.158 27.5633 16.5068C26.5329 17.5655 24.5988 19.3628 22.132 20.7844ZM17.0508 16.1719C17.0508 17.3027 16.1308 18.2227 15 18.2227C13.8692 18.2227 12.9492 17.3027 12.9492 16.1719C12.9492 15.0411 13.8692 14.1211 15 14.1211C16.1308 14.1211 17.0508 15.0411 17.0508 16.1719ZM15 19.9805C17.1001 19.9805 18.8086 18.2719 18.8086 16.1719C18.8086 15.4914 18.6284 14.8527 18.3144 14.2993C19.4708 14.4208 20.5713 14.5961 21.5932 14.8002C21.6892 15.2561 21.7383 15.7155 21.7383 16.1719C21.7383 19.8874 18.7155 22.9102 15 22.9102C11.2845 22.9102 8.26172 19.8874 8.26172 16.1719C8.26172 15.7149 8.31088 15.2548 8.40709 14.7984C9.4285 14.5946 10.5291 14.4198 11.6859 14.2986C11.3718 14.8522 11.1914 15.4912 11.1914 16.1719C11.1914 18.2719 12.8999 19.9805 15 19.9805ZM14.5141 2.05811C14.6062 1.87406 14.7943 1.75781 15 1.75781C15.2057 1.75781 15.3938 1.87406 15.4859 2.05811L18.5317 8.14986C17.3377 7.83527 16.1563 7.67578 15 7.67578C13.8437 7.67578 12.6623 7.83527 11.4683 8.14986L14.5141 2.05811ZM15 9.43359C18.7563 9.43359 22.1762 11.3958 24.3836 13.0419C24.7976 13.3507 25.1858 13.6604 25.5452 13.9618C22.9204 13.1789 19.1821 12.3633 15 12.3633C10.822 12.3633 7.08715 13.1773 4.46262 13.9595C6.92783 11.8954 10.7572 9.43359 15 9.43359ZM2.4351 16.5063C3.35027 16.157 4.7792 15.6628 6.56033 15.2147C6.52336 15.5336 6.50391 15.8531 6.50391 16.1719C6.50391 17.8711 7.00535 19.4554 7.86797 20.7845C7.0268 20.3019 6.26854 19.7881 5.61639 19.3018C4.22637 18.2653 3.12709 17.2188 2.4351 16.5063ZM27.699 28.2422H2.30104C2.00104 28.2422 1.75781 27.999 1.75781 27.699C1.75781 27.6146 1.77744 27.5314 1.81518 27.456L5.02172 21.0429C6.39773 22.0241 7.79508 22.8188 9.18287 23.4079C11.1527 24.244 13.1098 24.668 15 24.668C16.8902 24.668 18.8473 24.244 20.8172 23.4079C22.205 22.8188 23.6023 22.0241 24.9783 21.043L28.1849 27.4561C28.2226 27.5315 28.2422 27.6147 28.2422 27.699C28.2422 27.999 27.999 28.2422 27.699 28.2422Z" fill="#FAFAFA"/>
</svg>
