<svg width="30" height="30" viewBox="0 0 30 30" fill="none" xmlns="http://www.w3.org/2000/svg">
<g clip-path="url(#clip0)">
<path d="M3.125 28.75H26.875C28.5975 28.75 30 27.3475 30 25.625V4.375C30 2.6525 28.5975 1.25 26.875 1.25H3.125C1.4025 1.25 0 2.6525 0 4.375V25.625C0 27.3475 1.4025 28.75 3.125 28.75ZM26.875 3C27.9087 3 28.2857 3.34125 28.2857 4.375V15V25.625C28.2857 26.6587 27.9087 27 26.875 27H15H3.125C2.09125 27 1.71428 26.6587 1.71428 25.625V15V4.375C1.71428 3.34125 2.09125 3 3.125 3H15H26.875Z" fill="#FAFAFA"/>
<path d="M0.625 10H29.375C29.72 10 30 9.72 30 9.375C30 9.03 29.72 8.75 29.375 8.75H0.625C0.280001 8.75 0 9.03 0 9.375C0 9.72 0.280001 10 0.625 10Z" fill="#FAFAFA"/>
<path d="M0.625 16.25H29.375C29.72 16.25 30 15.97 30 15.625C30 15.28 29.72 15 29.375 15H0.625C0.280001 15 0 15.28 0 15.625C0 15.97 0.280001 16.25 0.625 16.25Z" fill="#FAFAFA"/>
<path d="M0.625 22.5H29.375C29.72 22.5 30 22.22 30 21.875C30 21.53 29.72 21.25 29.375 21.25H0.625C0.280001 21.25 0 21.53 0 21.875C0 22.22 0.280001 22.5 0.625 22.5Z" fill="#FAFAFA"/>
<path d="M21.875 28.75C22.22 28.75 22.5 28.47 22.5 28.125V9.375C22.5 9.03 22.22 8.75 21.875 8.75C21.53 8.75 21.25 9.03 21.25 9.375V28.125C21.25 28.47 21.53 28.75 21.875 28.75Z" fill="#FAFAFA"/>
<path d="M15 28.75C15.345 28.75 15.625 28.47 15.625 28.125V9.375C15.625 9.03 15.345 8.75 15 8.75C14.655 8.75 14.375 9.03 14.375 9.375V28.125C14.375 28.47 14.655 28.75 15 28.75Z" fill="#FAFAFA"/>
<path d="M8.125 28.75C8.47 28.75 8.75 28.47 8.75 28.125V9.375C8.75 9.03 8.47 8.75 8.125 8.75C7.78 8.75 7.5 9.03 7.5 9.375V28.125C7.5 28.47 7.78 28.75 8.125 28.75Z" fill="#FAFAFA"/>
</g>
<defs>
<clipPath id="clip0">
<rect width="30" height="30" fill="white" transform="matrix(-1 0 0 1 30 0)"/>
</clipPath>
</defs>
</svg>
